<svg xmlns="http://www.w3.org/2000/svg" width="33.747" height="33.796" viewBox="0 0 33.747 33.796">
  <g id="phone-call-svgrepo-com" transform="translate(0)">
    <g id="Group_128" data-name="Group 128" transform="translate(0 0)">
      <path id="Path_128" data-name="Path 128" d="M26.973,46.348a3.317,3.317,0,0,0-2.406-1.1,3.43,3.43,0,0,0-2.434,1.1l-2.249,2.242c-.185-.1-.37-.192-.548-.285-.256-.128-.5-.249-.7-.377a24.447,24.447,0,0,1-5.858-5.339,14.424,14.424,0,0,1-1.922-3.032c.584-.534,1.125-1.089,1.651-1.623.2-.2.4-.406.6-.605a3.266,3.266,0,0,0,0-4.926l-1.943-1.943c-.221-.221-.448-.448-.662-.676-.427-.441-.875-.9-1.338-1.324a3.369,3.369,0,0,0-2.384-1.046,3.486,3.486,0,0,0-2.42,1.046l-.014.014-2.42,2.442a5.208,5.208,0,0,0-1.545,3.31A12.48,12.48,0,0,0,1.285,39.5,30.651,30.651,0,0,0,6.73,48.584a33.5,33.5,0,0,0,11.154,8.734,17.377,17.377,0,0,0,6.264,1.851c.149.007.306.014.448.014A5.363,5.363,0,0,0,28.7,57.418c.007-.014.021-.021.028-.036a16.183,16.183,0,0,1,1.246-1.288c.306-.292.619-.6.925-.918a3.551,3.551,0,0,0,1.075-2.463,3.421,3.421,0,0,0-1.1-2.442Zm2.548,7.5c-.007,0-.007.007,0,0-.278.3-.562.569-.868.868a18.716,18.716,0,0,0-1.374,1.424A3.431,3.431,0,0,1,24.6,57.268c-.107,0-.221,0-.327-.007A15.437,15.437,0,0,1,18.723,55.6,31.618,31.618,0,0,1,8.218,47.366a28.9,28.9,0,0,1-5.125-8.535,10.165,10.165,0,0,1-.8-4.456,3.268,3.268,0,0,1,.982-2.114L5.7,29.833a1.618,1.618,0,0,1,1.082-.505,1.522,1.522,0,0,1,1.039.5l.021.021c.434.406.847.826,1.281,1.274.221.228.448.456.676.69l1.943,1.943a1.359,1.359,0,0,1,0,2.207c-.206.206-.406.413-.612.612-.6.612-1.167,1.182-1.787,1.737-.014.014-.028.021-.036.036a1.452,1.452,0,0,0-.37,1.616l.021.064a15.6,15.6,0,0,0,2.3,3.751l.007.007a26.126,26.126,0,0,0,6.321,5.752,9.717,9.717,0,0,0,.875.477c.256.128.5.249.7.377.028.014.057.036.085.05a1.543,1.543,0,0,0,.7.178,1.522,1.522,0,0,0,1.082-.491l2.434-2.435a1.61,1.61,0,0,1,1.075-.534,1.45,1.45,0,0,1,1.025.52l.014.014,3.922,3.922A1.408,1.408,0,0,1,29.521,53.844Z" transform="translate(-0.344 -25.387)" fill="#5f078a"/>
      <path id="Path_129" data-name="Path 129" d="M245.762,87.9a9.482,9.482,0,0,1,7.722,7.722.989.989,0,0,0,.98.825,1.315,1.315,0,0,0,.169-.015,1,1,0,0,0,.818-1.149,11.466,11.466,0,0,0-9.343-9.343,1,1,0,0,0-1.149.81A.984.984,0,0,0,245.762,87.9Z" transform="translate(-227.745 -79.883)" fill="#5f078a"/>
      <path id="Path_130" data-name="Path 130" d="M265.315,15.4A18.88,18.88,0,0,0,249.931.015a.993.993,0,1,0-.324,1.96,16.864,16.864,0,0,1,13.749,13.749.989.989,0,0,0,.98.825,1.315,1.315,0,0,0,.169-.015A.976.976,0,0,0,265.315,15.4Z" transform="translate(-231.583 0)" fill="#5f078a"/>
    </g>
  </g>
</svg>
