<svg xmlns="http://www.w3.org/2000/svg" width="34.551" height="34.716" viewBox="0 0 34.551 34.716">
  <path id="whatsapp-svgrepo-com" d="M32.517,8.046A17.208,17.208,0,0,0,5.439,28.8L3,37.716l9.12-2.393a17.21,17.21,0,0,0,8.221,2.095h.008A17.209,17.209,0,0,0,32.517,8.046M20.348,34.513h-.006a14.27,14.27,0,0,1-7.279-2l-.52-.31-5.412,1.42,1.443-5.276-.339-.54a14.3,14.3,0,1,1,12.113,6.7M28.192,23.8c-.431-.217-2.543-1.255-2.938-1.4s-.678-.215-.966.215-1.111,1.4-1.362,1.684-.5.322-.931.107a11.742,11.742,0,0,1-3.457-2.133A12.948,12.948,0,0,1,16.146,19.3c-.251-.431-.027-.663.19-.878.194-.192.429-.5.644-.753a2.94,2.94,0,0,0,.429-.717.785.785,0,0,0-.036-.753c-.107-.217-.968-2.332-1.326-3.193-.347-.834-.7-.722-.966-.734s-.548-.016-.822-.015a1.583,1.583,0,0,0-1.148.537,4.818,4.818,0,0,0-1.5,3.585,8.371,8.371,0,0,0,1.755,4.448c.215.287,3.032,4.628,7.343,6.49a25.421,25.421,0,0,0,2.451.906,5.905,5.905,0,0,0,2.708.171,4.422,4.422,0,0,0,2.9-2.043,3.6,3.6,0,0,0,.251-2.045c-.107-.18-.4-.289-.824-.5" transform="translate(-3 -3)" fill="#5f078a"/>
</svg>
